<?xml version="1.0" encoding="utf-8"?>
<!-- Generator: Adobe Illustrator 19.1.0, SVG Export Plug-In . SVG Version: 6.00 Build 0)  -->
<svg version="1.1" xmlns="http://www.w3.org/2000/svg" xmlns:xlink="http://www.w3.org/1999/xlink" x="0px" y="0px"
	 viewBox="0 0 16 16" width="16" height="16" style="enable-background:new 0 0 16 16;" xml:space="preserve">
<style type="text/css">
	.st0{fill:#DEEADA;}
	.st1{fill:url(#SVGID_1_);}
</style>
<g>
	<path class="st0" d="M7.3,0.6c-0.8,0.1-0.5,6.5-0.5,7c-1-0.1-2.2,0-3,0.3c-1.3,0.6-3,2-2.6,4.2c0.3,2.2,2.4,3.1,4.3,3.3
		c2.5,0.2,4.8-1.4,5.1-2c0.2-0.5,0.2-2.3,0.2-4.2c0-1,0-1.8,0-2.6c0-0.2,0.5,0.1,0.6,1.1c0,1,0.3,1.9,0.9,2.1
		c0.7,0.2,1.4-0.3,1.7-0.5c0.7-0.6,1.3-1.8,1.3-3C15,3.9,13.8-0.1,7.3,0.6z"/>
</g>
<g>
	<linearGradient id="SVGID_1_" gradientUnits="userSpaceOnUse" x1="7.3199" y1="6.5525" x2="9.3199" y2="12.2608">
		<stop  offset="0" style="stop-color:#E58F15"/>
		<stop  offset="0.505" style="stop-color:#F1760C"/>
		<stop  offset="1" style="stop-color:#F16C0C"/>
	</linearGradient>
	<path class="st1" d="M8,1.5c-0.3,0-0.2,4.4-0.3,6.6c0,0.3,0,0.6,0,0.8C6.6,8.5,5.6,8.5,4.4,8.9C3.1,9.3,1.8,10.2,2.1,12
		c0.3,1.8,1.6,2.2,3.1,2.4c1.7,0.2,3.2-0.2,4.4-1.4c0.2-1.5,0.2-2.9,0.1-4.4c0-0.8,0-2.7,0.1-3.6c0-0.2,1,0.4,1.3,0.7
		C11.4,6,12,6.8,12.1,7.6c0,0.5,0,1.3,0.3,1.4C12.7,9,13,8.8,13.1,8.6c0.6-0.5,1-1.7,1-2.1C14.1,3.2,11.9,1,8,1.5z"/>
</g>
</svg>
