<?xml version="1.0" encoding="utf-8"?>
<!-- Generator: Adobe Illustrator 19.1.0, SVG Export Plug-In . SVG Version: 6.00 Build 0)  -->
<svg version="1.1" width="32" height="32" xmlns="http://www.w3.org/2000/svg" xmlns:xlink="http://www.w3.org/1999/xlink" x="0px" y="0px"
	 viewBox="0 0 500 500" style="enable-background:new 0 0 500 500;" xml:space="preserve">
<style type="text/css">
	.st0{fill:#C9D7CD;}
	.st1{fill:#D96D0D;}
</style>
<path class="st0" d="M13.4,206.2C6.4,83.5,126,34,222.3,84.1c10.4,5.4,19.6,16.1,28.6,16.5c7.7,0.3,15.1-8.9,22.9-14.8
	c56.6-43.5,151.6-14.6,184.2,24.2c39.1,46.6,41.9,134,2.5,188.4c-49.2,68-116.2,114-190.6,150.5c-12.9,6.3-28.2,7.5-39.3,1.4
	C156.4,409.1,83.8,365.3,34.5,293C16.3,266.3,12.7,235.9,13.4,206.2z"/>
<path class="st1" d="M453.7,212.5c0,0.5,0.1,1.1,0.1,1.6c-3.5,30.5-13.7,59.8-37.9,85.6c-42.8,45.6-94.3,78-147.7,110.4
	c-17.3,10.5-20.8,14.4-45.1-1c-57.8-36.5-115.5-73.2-157.2-130.4C37.7,240,31.4,164.5,76.4,124.1c38.1-34.2,101.9-32.1,146.4,3.6
	c12.1,9.7,20.3,18,28,17.7c7.9-0.3,15.1-9.4,25.1-18.5c34.9-31.8,74.9-37.7,119.5-17.1C438.7,129.7,453.7,165.1,453.7,212.5z"/>
</svg>
